ffmpeg started on 2026-01-13 at 21:59:48
Report written to "D:\Convert\FFMetrics\reports\psnr_report-6.txt"
Log level: 32
Command line:
ffmpeg -hide_banner -nostdin -r 24000/1001 -i "F:\\Convert\\files\\[DC] Make Heroine ga Oosugiru - 07_Telegram_HEVC(78).mkv" -r 24000/1001 -i "F:\\Convert\\files\\[DC] Make Heroine ga Oosugiru - 07_Telegram.mp4" -lavfi "[0:v]settb=AVTB,setpts=PTS-STARTPTS,format=pix_fmts=yuv420p10le,fps=24000/1001,scale=1920:1080:flags=lanczos:param0=3:out_range=limited:out_color_matrix=bt709:out_chroma_loc=left,setsar=1/1,setdar=(1920/1080)*(1/1),colorspace=format=yuv420p10:range=tv:primaries=bt709:trc=bt709:space=bt709:fast=0[main];[1:v]settb=AVTB,setpts=PTS-STARTPTS,format=pix_fmts=yuv420p,fps=24000/1001,scale=1920:1080:flags=lanczos:param0=3:out_range=limited:out_color_matrix=bt709:out_chroma_loc=left,setsar=1.000,setdar=1.778,colorspace=format=yuv420p:range=tv:primaries=bt709:trc=bt709:space=bt709:fast=0[ref];[main][ref]psnr=eof_action=endall:stats_file='D\\:/Convert/FFMetrics/logs/psnr_logfile-6.txt'" -f null -
Input #0, matroska,webm, from 'F:\Convert\files\[DC] Make Heroine ga Oosugiru - 07_Telegram_HEVC(78).mkv':
  Metadata:
    COMPATIBLE_BRANDS: isomiso2avc1mp41
    MAJOR_BRAND     : isom
    MINOR_VERSION   : 512
    ENCODER         : Lavf61.7.100
  Duration: 00:24:06.79, start: -0.021000, bitrate: 918 kb/s
  Stream #0:0: Video: hevc (Main 10), yuv420p10le(tv, bt709, progressive), 1920x1080 [SAR 1:1 DAR 16:9], 23.98 fps, 23.98 tbr, 1k tbn (default)
      Metadata:
        HANDLER_NAME    : VideoHandler
        VENDOR_ID       : [0][0][0][0]
        ENCODER         : Lavc61.19.100 libx265
        BPS             : 721008
        DURATION        : 00:24:06.569708333
        NUMBER_OF_FRAMES: 34683
        NUMBER_OF_BYTES : 130373551
        _STATISTICS_WRITING_APP: mkvpropedit v94.0 ('Initiate') 64-bit
        _STATISTICS_WRITING_DATE_UTC: 2026-01-13 18:54:15
        _STATISTICS_TAGS: BPS DURATION NUMBER_OF_FRAMES NUMBER_OF_BYTES
  Stream #0:1: Audio: aac (LC), 48000 Hz, stereo, fltp (default)
      Metadata:
        HANDLER_NAME    : SoundHandler
        VENDOR_ID       : [0][0][0][0]
        ENCODER         : Lavc61.19.100 aac
        BPS             : 193194
        DURATION        : 00:24:06.784000000
        NUMBER_OF_FRAMES: 67819
        NUMBER_OF_BYTES : 34938755
        _STATISTICS_WRITING_APP: mkvpropedit v94.0 ('Initiate') 64-bit
        _STATISTICS_WRITING_DATE_UTC: 2026-01-13 18:54:15
        _STATISTICS_TAGS: BPS DURATION NUMBER_OF_FRAMES NUMBER_OF_BYTES
Input #1, mov,mp4,m4a,3gp,3g2,mj2, from 'F:\Convert\files\[DC] Make Heroine ga Oosugiru - 07_Telegram.mp4':
  Metadata:
    major_brand     : isom
    minor_version   : 512
    compatible_brands: isomiso2avc1mp41
    encoder         : Lavf60.16.100
  Duration: 00:24:06.74, start: 0.000000, bitrate: 3764 kb/s
  Stream #1:0[0x1](und): Video: h264 (High) (avc1 / 0x31637661), yuv420p(tv, bt709, progressive), 1920x1080 [SAR 1:1 DAR 16:9], 3616 kb/s, 23.98 fps, 23.98 tbr, 24k tbn (default)
      Metadata:
        handler_name    : VideoHandler
        vendor_id       : [0][0][0][0]
        encoder         : Lavc60.31.102 h264_qsv
  Stream #1:1[0x2](und): Audio: aac (HE-AACv2) (mp4a / 0x6134706D), 48000 Hz, stereo, fltp, 144 kb/s (default)
      Metadata:
        handler_name    : SoundHandler
        vendor_id       : [0][0][0][0]
Stream mapping:
  Stream #0:0 (hevc) -> settb:default
  Stream #1:0 (h264) -> settb:default
  psnr:default -> Stream #0:0 (wrapped_avframe)
  Stream #0:1 -> #0:1 (aac (native) -> pcm_s16le (native))
Output #0, null, to 'pipe:':
  Metadata:
    COMPATIBLE_BRANDS: isomiso2avc1mp41
    MAJOR_BRAND     : isom
    MINOR_VERSION   : 512
    encoder         : Lavf61.7.100
  Stream #0:0: Video: wrapped_avframe, yuv420p10le(tv, bt709, progressive), 1920x1080 [SAR 1:1 DAR 16:9], q=2-31, 200 kb/s, 23.98 fps, 23.98 tbn
      Metadata:
        encoder         : Lavc61.19.100 wrapped_avframe
  Stream #0:1: Audio: pcm_s16le, 48000 Hz, stereo, s16, 1536 kb/s (default)
      Metadata:
        HANDLER_NAME    : SoundHandler
        VENDOR_ID       : [0][0][0][0]
        _STATISTICS_TAGS: BPS DURATION NUMBER_OF_FRAMES NUMBER_OF_BYTES
        BPS             : 193194
        DURATION        : 00:24:06.784000000
        NUMBER_OF_FRAMES: 67819
        NUMBER_OF_BYTES : 34938755
        _STATISTICS_WRITING_APP: mkvpropedit v94.0 ('Initiate') 64-bit
        _STATISTICS_WRITING_DATE_UTC: 2026-01-13 18:54:15
        encoder         : Lavc61.19.100 pcm_s16le
frame=  149 fps=0.0 q=-0.0 size=N/A time=00:00:06.21 bitrate=N/A speed=12.3x    frame=  355 fps=349 q=-0.0 size=N/A time=00:00:14.80 bitrate=N/A speed=14.5x    frame=  573 fps=371 q=-0.0 size=N/A time=00:00:23.89 bitrate=N/A speed=15.5x    frame=  787 fps=383 q=-0.0 size=N/A time=00:00:32.82 bitrate=N/A speed=  16x    frame=  952 fps=371 q=-0.0 size=N/A time=00:00:39.70 bitrate=N/A speed=15.5x    frame= 1118 fps=363 q=-0.0 size=N/A time=00:00:46.62 bitrate=N/A speed=15.1x    frame= 1291 fps=358 q=-0.0 size=N/A time=00:00:53.84 bitrate=N/A speed=14.9x    frame= 1468 fps=356 q=-0.0 size=N/A time=00:01:01.22 bitrate=N/A speed=14.9x    frame= 1624 fps=351 q=-0.0 size=N/A time=00:01:07.73 bitrate=N/A speed=14.6x    frame= 1792 fps=348 q=-0.0 size=N/A time=00:01:14.74 bitrate=N/A speed=14.5x    frame= 1980 fps=349 q=-0.0 size=N/A time=00:01:22.58 bitrate=N/A speed=14.6x    frame= 2099 fps=340 q=-0.0 size=N/A time=00:01:27.54 bitrate=N/A speed=14.2x    frame= 2263 fps=338 q=-0.0 size=N/A time=00:01:34.38 bitrate=N/A speed=14.1x    frame= 2420 fps=335 q=-0.0 size=N/A time=00:01:40.93 bitrate=N/A speed=  14x    frame= 2563 fps=332 q=-0.0 size=N/A time=00:01:46.89 bitrate=N/A speed=13.8x    frame= 2742 fps=333 q=-0.0 size=N/A time=00:01:54.36 bitrate=N/A speed=13.9x    frame= 2928 fps=334 q=-0.0 size=N/A time=00:02:02.12 bitrate=N/A speed=  14x    frame= 3142 fps=339 q=-0.0 size=N/A time=00:02:11.04 bitrate=N/A speed=14.1x    frame= 3354 fps=343 q=-0.0 size=N/A time=00:02:19.88 bitrate=N/A speed=14.3x    frame= 3570 fps=346 q=-0.0 size=N/A time=00:02:28.89 bitrate=N/A speed=14.5x    frame= 3795 fps=350 q=-0.0 size=N/A time=00:02:38.28 bitrate=N/A speed=14.6x    frame= 4004 fps=353 q=-0.0 size=N/A time=00:02:47.00 bitrate=N/A speed=14.7x    frame= 4219 fps=356 q=-0.0 size=N/A time=00:02:55.96 bitrate=N/A speed=14.8x    frame= 4434 fps=359 q=-0.0 size=N/A time=00:03:04.93 bitrate=N/A speed=  15x    frame= 4653 fps=361 q=-0.0 size=N/A time=00:03:14.06 bitrate=N/A speed=15.1x    frame= 4870 fps=363 q=-0.0 size=N/A time=00:03:23.11 bitrate=N/A speed=15.1x    frame= 5083 fps=365 q=-0.0 size=N/A time=00:03:32.00 bitrate=N/A speed=15.2x    frame= 5288 fps=366 q=-0.0 size=N/A time=00:03:40.55 bitrate=N/A speed=15.3x    frame= 5500 fps=368 q=-0.0 size=N/A time=00:03:49.39 bitrate=N/A speed=15.3x    frame= 5718 fps=369 q=-0.0 size=N/A time=00:03:58.48 bitrate=N/A speed=15.4x    frame= 5925 fps=370 q=-0.0 size=N/A time=00:04:07.12 bitrate=N/A speed=15.4x    frame= 6134 fps=372 q=-0.0 size=N/A time=00:04:15.83 bitrate=N/A speed=15.5x    frame= 6351 fps=373 q=-0.0 size=N/A time=00:04:24.88 bitrate=N/A speed=15.6x    frame= 6572 fps=374 q=-0.0 size=N/A time=00:04:34.10 bitrate=N/A speed=15.6x    frame= 6785 fps=375 q=-0.0 size=N/A time=00:04:42.99 bitrate=N/A speed=15.7x    frame= 7000 fps=377 q=-0.0 size=N/A time=00:04:51.95 bitrate=N/A speed=15.7x    frame= 7207 fps=377 q=-0.0 size=N/A time=00:05:00.59 bitrate=N/A speed=15.7x    frame= 7424 fps=378 q=-0.0 size=N/A time=00:05:09.64 bitrate=N/A speed=15.8x    frame= 7624 fps=378 q=-0.0 size=N/A time=00:05:17.98 bitrate=N/A speed=15.8x    frame= 7823 fps=379 q=-0.0 size=N/A time=00:05:26.28 bitrate=N/A speed=15.8x    frame= 8027 fps=379 q=-0.0 size=N/A time=00:05:34.79 bitrate=N/A speed=15.8x    frame= 8246 fps=380 q=-0.0 size=N/A time=00:05:43.92 bitrate=N/A speed=15.8x    frame= 8450 fps=380 q=-0.0 size=N/A time=00:05:52.43 bitrate=N/A speed=15.9x    frame= 8661 fps=381 q=-0.0 size=N/A time=00:06:01.23 bitrate=N/A speed=15.9x    frame= 8863 fps=381 q=-0.0 size=N/A time=00:06:09.66 bitrate=N/A speed=15.9x    frame= 9080 fps=382 q=-0.0 size=N/A time=00:06:18.71 bitrate=N/A speed=15.9x    frame= 9296 fps=383 q=-0.0 size=N/A time=00:06:27.72 bitrate=N/A speed=  16x    frame= 9500 fps=383 q=-0.0 size=N/A time=00:06:36.22 bitrate=N/A speed=  16x    frame= 9707 fps=384 q=-0.0 size=N/A time=00:06:44.86 bitrate=N/A speed=  16x    frame= 9930 fps=384 q=-0.0 size=N/A time=00:06:54.16 bitrate=N/A speed=  16x    frame=10140 fps=385 q=-0.0 size=N/A time=00:07:02.92 bitrate=N/A speed=16.1x    frame=10347 fps=385 q=-0.0 size=N/A time=00:07:11.55 bitrate=N/A speed=16.1x    frame=10550 fps=386 q=-0.0 size=N/A time=00:07:20.02 bitrate=N/A speed=16.1x    frame=10759 fps=386 q=-0.0 size=N/A time=00:07:28.73 bitrate=N/A speed=16.1x    frame=10966 fps=386 q=-0.0 size=N/A time=00:07:37.37 bitrate=N/A speed=16.1x    frame=11172 fps=386 q=-0.0 size=N/A time=00:07:45.96 bitrate=N/A speed=16.1x    frame=11375 fps=387 q=-0.0 size=N/A time=00:07:54.43 bitrate=N/A speed=16.1x    frame=11583 fps=387 q=-0.0 size=N/A time=00:08:03.10 bitrate=N/A speed=16.1x    frame=11783 fps=387 q=-0.0 size=N/A time=00:08:11.44 bitrate=N/A speed=16.1x    frame=11984 fps=387 q=-0.0 size=N/A time=00:08:19.83 bitrate=N/A speed=16.1x    frame=12186 fps=387 q=-0.0 size=N/A time=00:08:28.25 bitrate=N/A speed=16.1x    frame=12396 fps=387 q=-0.0 size=N/A time=00:08:37.01 bitrate=N/A speed=16.1x    frame=12592 fps=387 q=-0.0 size=N/A time=00:08:45.19 bitrate=N/A speed=16.1x    frame=12787 fps=387 q=-0.0 size=N/A time=00:08:53.32 bitrate=N/A speed=16.1x    frame=12983 fps=387 q=-0.0 size=N/A time=00:09:01.49 bitrate=N/A speed=16.1x    frame=13189 fps=387 q=-0.0 size=N/A time=00:09:10.09 bitrate=N/A speed=16.1x    frame=13381 fps=387 q=-0.0 size=N/A time=00:09:18.09 bitrate=N/A speed=16.1x    frame=13575 fps=387 q=-0.0 size=N/A time=00:09:26.19 bitrate=N/A speed=16.1x    frame=13775 fps=387 q=-0.0 size=N/A time=00:09:34.53 bitrate=N/A speed=16.1x    frame=13969 fps=387 q=-0.0 size=N/A time=00:09:42.62 bitrate=N/A speed=16.1x    frame=14145 fps=386 q=-0.0 size=N/A time=00:09:49.96 bitrate=N/A speed=16.1x    frame=14334 fps=386 q=-0.0 size=N/A time=00:09:57.84 bitrate=N/A speed=16.1x    frame=14517 fps=385 q=-0.0 size=N/A time=00:10:05.47 bitrate=N/A speed=16.1x    frame=14691 fps=385 q=-0.0 size=N/A time=00:10:12.73 bitrate=N/A speed=  16x    frame=14879 fps=384 q=-0.0 size=N/A time=00:10:20.57 bitrate=N/A speed=  16x    frame=15074 fps=384 q=-0.0 size=N/A time=00:10:28.71 bitrate=N/A speed=  16x    frame=15241 fps=383 q=-0.0 size=N/A time=00:10:35.67 bitrate=N/A speed=  16x    frame=15441 fps=384 q=-0.0 size=N/A time=00:10:44.01 bitrate=N/A speed=  16x    frame=15634 fps=383 q=-0.0 size=N/A time=00:10:52.06 bitrate=N/A speed=  16x    frame=15828 fps=383 q=-0.0 size=N/A time=00:11:00.15 bitrate=N/A speed=  16x    frame=16025 fps=383 q=-0.0 size=N/A time=00:11:08.37 bitrate=N/A speed=  16x    frame=16214 fps=383 q=-0.0 size=N/A time=00:11:16.25 bitrate=N/A speed=  16x    frame=16407 fps=383 q=-0.0 size=N/A time=00:11:24.30 bitrate=N/A speed=  16x    frame=16597 fps=383 q=-0.0 size=N/A time=00:11:32.23 bitrate=N/A speed=  16x    frame=16791 fps=383 q=-0.0 size=N/A time=00:11:40.32 bitrate=N/A speed=  16x    frame=16989 fps=383 q=-0.0 size=N/A time=00:11:48.58 bitrate=N/A speed=  16x    frame=17184 fps=383 q=-0.0 size=N/A time=00:11:56.71 bitrate=N/A speed=  16x    frame=17385 fps=383 q=-0.0 size=N/A time=00:12:05.09 bitrate=N/A speed=  16x    frame=17575 fps=383 q=-0.0 size=N/A time=00:12:13.02 bitrate=N/A speed=  16x    frame=17757 fps=382 q=-0.0 size=N/A time=00:12:20.61 bitrate=N/A speed=15.9x    frame=17929 fps=382 q=-0.0 size=N/A time=00:12:27.78 bitrate=N/A speed=15.9x    frame=18129 fps=382 q=-0.0 size=N/A time=00:12:36.13 bitrate=N/A speed=15.9x    frame=18300 fps=381 q=-0.0 size=N/A time=00:12:43.26 bitrate=N/A speed=15.9x    frame=18503 fps=381 q=-0.0 size=N/A time=00:12:51.72 bitrate=N/A speed=15.9x    frame=18698 fps=381 q=-0.0 size=N/A time=00:12:59.86 bitrate=N/A speed=15.9x    frame=18897 fps=381 q=-0.0 size=N/A time=00:13:08.16 bitrate=N/A speed=15.9x    frame=19102 fps=381 q=-0.0 size=N/A time=00:13:16.71 bitrate=N/A speed=15.9x    frame=19304 fps=381 q=-0.0 size=N/A time=00:13:25.13 bitrate=N/A speed=15.9x    frame=19490 fps=381 q=-0.0 size=N/A time=00:13:32.89 bitrate=N/A speed=15.9x    frame=19686 fps=381 q=-0.0 size=N/A time=00:13:41.07 bitrate=N/A speed=15.9x    frame=19883 fps=381 q=-0.0 size=N/A time=00:13:49.28 bitrate=N/A speed=15.9x    frame=20088 fps=381 q=-0.0 size=N/A time=00:13:57.83 bitrate=N/A speed=15.9x    frame=20269 fps=381 q=-0.0 size=N/A time=00:14:05.38 bitrate=N/A speed=15.9x    frame=20438 fps=381 q=-0.0 size=N/A time=00:14:12.43 bitrate=N/A speed=15.9x    frame=20618 fps=380 q=-0.0 size=N/A time=00:14:19.94 bitrate=N/A speed=15.9x    frame=20811 fps=380 q=-0.0 size=N/A time=00:14:27.99 bitrate=N/A speed=15.9x    frame=21017 fps=380 q=-0.0 size=N/A time=00:14:36.58 bitrate=N/A speed=15.9x    frame=21211 fps=380 q=-0.0 size=N/A time=00:14:44.67 bitrate=N/A speed=15.9x    frame=21410 fps=380 q=-0.0 size=N/A time=00:14:52.97 bitrate=N/A speed=15.9x    frame=21608 fps=380 q=-0.0 size=N/A time=00:15:01.23 bitrate=N/A speed=15.9x    frame=21802 fps=380 q=-0.0 size=N/A time=00:15:09.32 bitrate=N/A speed=15.9x    frame=22000 fps=381 q=-0.0 size=N/A time=00:15:17.58 bitrate=N/A speed=15.9x    frame=22204 fps=381 q=-0.0 size=N/A time=00:15:26.09 bitrate=N/A speed=15.9x    frame=22398 fps=381 q=-0.0 size=N/A time=00:15:34.18 bitrate=N/A speed=15.9x    frame=22595 fps=381 q=-0.0 size=N/A time=00:15:42.39 bitrate=N/A speed=15.9x    frame=22784 fps=381 q=-0.0 size=N/A time=00:15:50.28 bitrate=N/A speed=15.9x    frame=22975 fps=380 q=-0.0 size=N/A time=00:15:58.24 bitrate=N/A speed=15.9x    frame=23178 fps=381 q=-0.0 size=N/A time=00:16:06.71 bitrate=N/A speed=15.9x    frame=23373 fps=381 q=-0.0 size=N/A time=00:16:14.84 bitrate=N/A speed=15.9x    frame=23575 fps=381 q=-0.0 size=N/A time=00:16:23.27 bitrate=N/A speed=15.9x    frame=23772 fps=381 q=-0.0 size=N/A time=00:16:31.49 bitrate=N/A speed=15.9x    frame=23969 fps=381 q=-0.0 size=N/A time=00:16:39.70 bitrate=N/A speed=15.9x    frame=24162 fps=381 q=-0.0 size=N/A time=00:16:47.75 bitrate=N/A speed=15.9x    frame=24354 fps=380 q=-0.0 size=N/A time=00:16:55.76 bitrate=N/A speed=15.9x    frame=24557 fps=381 q=-0.0 size=N/A time=00:17:04.23 bitrate=N/A speed=15.9x    frame=24752 fps=381 q=-0.0 size=N/A time=00:17:12.36 bitrate=N/A speed=15.9x    frame=24949 fps=381 q=-0.0 size=N/A time=00:17:20.58 bitrate=N/A speed=15.9x    frame=25148 fps=381 q=-0.0 size=N/A time=00:17:28.88 bitrate=N/A speed=15.9x    frame=25346 fps=381 q=-0.0 size=N/A time=00:17:37.13 bitrate=N/A speed=15.9x    frame=25547 fps=381 q=-0.0 size=N/A time=00:17:45.52 bitrate=N/A speed=15.9x    frame=25743 fps=381 q=-0.0 size=N/A time=00:17:53.69 bitrate=N/A speed=15.9x    frame=25929 fps=381 q=-0.0 size=N/A time=00:18:01.45 bitrate=N/A speed=15.9x    frame=26134 fps=381 q=-0.0 size=N/A time=00:18:10.00 bitrate=N/A speed=15.9x    frame=26331 fps=381 q=-0.0 size=N/A time=00:18:18.22 bitrate=N/A speed=15.9x    frame=26525 fps=381 q=-0.0 size=N/A time=00:18:26.31 bitrate=N/A speed=15.9x    frame=26727 fps=381 q=-0.0 size=N/A time=00:18:34.73 bitrate=N/A speed=15.9x    frame=26919 fps=381 q=-0.0 size=N/A time=00:18:42.74 bitrate=N/A speed=15.9x    frame=27093 fps=380 q=-0.0 size=N/A time=00:18:50.00 bitrate=N/A speed=15.9x    frame=27276 fps=380 q=-0.0 size=N/A time=00:18:57.63 bitrate=N/A speed=15.9x    frame=27471 fps=380 q=-0.0 size=N/A time=00:19:05.76 bitrate=N/A speed=15.9x    frame=27659 fps=380 q=-0.0 size=N/A time=00:19:13.61 bitrate=N/A speed=15.9x    frame=27843 fps=380 q=-0.0 size=N/A time=00:19:21.28 bitrate=N/A speed=15.8x    frame=28039 fps=380 q=-0.0 size=N/A time=00:19:29.45 bitrate=N/A speed=15.8x    frame=28232 fps=380 q=-0.0 size=N/A time=00:19:37.50 bitrate=N/A speed=15.8x    frame=28424 fps=380 q=-0.0 size=N/A time=00:19:45.51 bitrate=N/A speed=15.8x    frame=28615 fps=380 q=-0.0 size=N/A time=00:19:53.48 bitrate=N/A speed=15.8x    frame=28797 fps=380 q=-0.0 size=N/A time=00:20:01.07 bitrate=N/A speed=15.8x    frame=28972 fps=379 q=-0.0 size=N/A time=00:20:08.37 bitrate=N/A speed=15.8x    frame=29145 fps=379 q=-0.0 size=N/A time=00:20:15.58 bitrate=N/A speed=15.8x    frame=29327 fps=379 q=-0.0 size=N/A time=00:20:23.18 bitrate=N/A speed=15.8x    frame=29502 fps=379 q=-0.0 size=N/A time=00:20:30.47 bitrate=N/A speed=15.8x    frame=29681 fps=378 q=-0.0 size=N/A time=00:20:37.94 bitrate=N/A speed=15.8x    frame=29856 fps=378 q=-0.0 size=N/A time=00:20:45.24 bitrate=N/A speed=15.8x    frame=30019 fps=378 q=-0.0 size=N/A time=00:20:52.04 bitrate=N/A speed=15.8x    frame=30201 fps=378 q=-0.0 size=N/A time=00:20:59.63 bitrate=N/A speed=15.7x    frame=30384 fps=377 q=-0.0 size=N/A time=00:21:07.26 bitrate=N/A speed=15.7x    frame=30567 fps=377 q=-0.0 size=N/A time=00:21:14.89 bitrate=N/A speed=15.7x    frame=30752 fps=377 q=-0.0 size=N/A time=00:21:22.61 bitrate=N/A speed=15.7x    frame=30945 fps=377 q=-0.0 size=N/A time=00:21:30.66 bitrate=N/A speed=15.7x    frame=31140 fps=377 q=-0.0 size=N/A time=00:21:38.79 bitrate=N/A speed=15.7x    frame=31330 fps=377 q=-0.0 size=N/A time=00:21:46.72 bitrate=N/A speed=15.7x    frame=31513 fps=377 q=-0.0 size=N/A time=00:21:54.35 bitrate=N/A speed=15.7x    frame=31712 fps=377 q=-0.0 size=N/A time=00:22:02.65 bitrate=N/A speed=15.7x    frame=31888 fps=377 q=-0.0 size=N/A time=00:22:09.99 bitrate=N/A speed=15.7x    frame=32069 fps=377 q=-0.0 size=N/A time=00:22:17.54 bitrate=N/A speed=15.7x    frame=32264 fps=377 q=-0.0 size=N/A time=00:22:25.67 bitrate=N/A speed=15.7x    frame=32465 fps=377 q=-0.0 size=N/A time=00:22:34.06 bitrate=N/A speed=15.7x    frame=32645 fps=377 q=-0.0 size=N/A time=00:22:41.56 bitrate=N/A speed=15.7x    frame=32797 fps=376 q=-0.0 size=N/A time=00:22:47.90 bitrate=N/A speed=15.7x    frame=32976 fps=376 q=-0.0 size=N/A time=00:22:55.37 bitrate=N/A speed=15.7x    frame=33151 fps=376 q=-0.0 size=N/A time=00:23:02.67 bitrate=N/A speed=15.7x    frame=33331 fps=376 q=-0.0 size=N/A time=00:23:10.18 bitrate=N/A speed=15.7x    frame=33495 fps=375 q=-0.0 size=N/A time=00:23:17.02 bitrate=N/A speed=15.6x    frame=33648 fps=375 q=-0.0 size=N/A time=00:23:23.40 bitrate=N/A speed=15.6x    frame=33788 fps=374 q=-0.0 size=N/A time=00:23:29.24 bitrate=N/A speed=15.6x    frame=33925 fps=374 q=-0.0 size=N/A time=00:23:34.95 bitrate=N/A speed=15.6x    frame=34091 fps=373 q=-0.0 size=N/A time=00:23:41.87 bitrate=N/A speed=15.6x    frame=34257 fps=373 q=-0.0 size=N/A time=00:23:48.80 bitrate=N/A speed=15.6x    frame=34388 fps=372 q=-0.0 size=N/A time=00:23:54.26 bitrate=N/A speed=15.5x    frame=34551 fps=372 q=-0.0 size=N/A time=00:24:01.06 bitrate=N/A speed=15.5x    [Parsed_psnr_16 @ 000002281b0deb00] PSNR y:48.566452 u:50.272241 v:50.347368 average:49.073540 min:36.917928 max:inf
[out#0/null @ 000002280d4e8a00] video:14903KiB audio:271276KiB subtitle:0KiB other streams:0KiB global headers:0KiB muxing overhead: unknown
frame=34683 fps=372 q=-0.0 Lsize=N/A time=00:24:06.57 bitrate=N/A speed=15.5x    
